<?xml version="1.0" encoding="utf-8"?>
<!-- Generator: Adobe Illustrator 21.0.1, SVG Export Plug-In . SVG Version: 6.00 Build 0)  -->
<svg version="1.1" id="Слой_1" xmlns="http://www.w3.org/2000/svg" xmlns:xlink="http://www.w3.org/1999/xlink" x="0px" y="0px"
	 viewBox="0 0 634.9 480" style="enable-background:new 0 0 634.9 480;" xml:space="preserve">
<style type="text/css">
	.st0{fill:#BD952E;}
	.st1{fill:#BE9630;}
	.st2{fill:#BF9832;}
	.st3{fill:#BF9731;}
	.st4{fill:#BF9833;}
	.st5{fill:#BE9730;}
</style>
<g>
	<path class="st0" d="M207.2,308.6c-49.4,14.8-95.9,8.8-138.6-20.1c-32.9-22.3-54.5-53.3-63.9-92C-14,119.6,24.6,47.4,88.7,16.3
		c38.1-18.5,77.8-21.2,118-8.2c40.2,13,70.1,38.8,90.7,75.9c27.1-8.4,54.6-9.6,82.3-3.3c27.7,6.2,51.8,19.1,72.8,38.1
		c12.8-26.9,32.7-45.4,61.3-53.6c24-6.9,47.2-4.3,69.9,7.2c-11.5,13.7-22.8,27.2-34,40.6c-3-0.6-6-1.3-8.9-1.7
		c-7.5-1.1-14.8-0.4-22.1,1.7c-6.4,1.9-12,5.1-17,9.5c-10.9,9.9-15.4,22.3-14.2,36.8c0.5,5.8,2.3,11.2,4.8,16.5
		c4.4,9.2,11,16.4,19.4,22c10.9,7.1,22.8,10.2,35.8,9.1c5.5-0.5,10.7-2.2,15.9-4.4c6.6-2.8,12-7.3,16.2-12.8
		c7.1-9.2,10.3-19.8,8.8-31.5c-0.8-6.6-1.8-9.5-5.1-16.9c11.2-12.9,22.5-25.9,33.8-38.9c20.8,28.5,25.4,72.6,2,108.3
		c-25.4,38.8-72.8,53.8-116.9,35.8c-0.1,0.7-0.4,1.3-0.4,2c-1.1,10.9-3.3,21.6-6.8,32c-1.6,4.7-3.2,9.4-5.1,13.9
		c-3.3,7.9-7.3,15.5-12,22.6c-3.2,4.9-6.5,9.7-10.3,14.1c-2.7,3.2-5.6,6.3-8.5,9.4c-5.9,6.1-12.1,11.8-18.9,16.9
		c-5,3.7-10.1,7.3-15.5,10.4c-11.2,6.4-22.9,11.6-35.4,15.2c-18,5.2-36.3,7.2-55,6.2c-14.6-0.8-28.8-3.8-42.7-8.4
		c-5.9-2-11.7-4.4-17.3-7.1c-8-3.9-15.5-8.5-22.8-13.7c-5.9-4.2-11.1-9.2-16.5-13.9c-1.4-1.2-2.4-2.7-3.7-4
		c-6.3-6.2-11.7-13.1-16.5-20.5c-2.3-3.5-4.3-7.1-6.4-10.7C208.2,310.2,207.7,309.4,207.2,308.6z M242.6,113.8
		c-2.9-6.8-6.9-12.7-11.1-18.4c-3.5-4.7-7.5-9.1-11.9-13.1c-5.2-4.8-11-8.8-17-12.4c-6.3-3.8-13.1-6.3-20-8.4
		c-11.7-3.5-23.7-4.3-35.8-3c-9.6,1.1-18.6,3.8-27.3,7.7c-4.7,2.1-9,5.2-13.5,7.8c-5.6,3.2-10.2,7.7-14.7,12.2
		c-5.1,5.2-9.8,10.9-13.5,17.4c-3.7,6.5-7.2,13-9.6,20.1c-5.1,15.1-7,30.4-5.1,46.3c1.1,9.7,3.5,19,7.2,28c2.1,5,5,9.6,7.5,14.5
		c3.1,6,7.5,11,11.9,15.9c4.7,5.1,9.8,9.8,15.7,13.6c5.6,3.6,11.2,7,17.4,9.5c9.6,3.9,19.4,6.3,29.7,6.9c12.1,0.6,23.9-1.2,35.3-5.2
		c9-3.2,17.2-7.7,24.8-13.4c4.7-3.5,9-7.4,12.9-11.8c5.8-6.4,10.7-13.4,14.8-20.9c1.3-2.4,2.5-5,3.7-7.5c22.1,0,44.1,0,66.3,0
		c0,0.6,0,1.1-0.1,1.5c-2.6,9.3-6.2,18.3-10.4,27c-2.4,5-5.5,9.5-8.2,14.4c-3.3,6.2-7.7,11.6-12.1,16.9c-4.9,6-10.3,11.6-16.1,16.7
		c-1.1,0.9-2,2-2.9,2.8c2.9,7.4,7.6,13.5,12.3,19.4c3.9,4.9,8.5,9.3,13.3,13.4c6,5,12.5,9.2,19.4,12.8c4.5,2.3,9.2,4.1,14,5.6
		c6.9,2.2,13.9,3.7,21.1,4.1c11,0.7,21.7-0.7,32.2-3.8c9.1-2.7,17.4-6.9,25.1-12.1c7.5-5.1,14-11.2,19.9-18.3
		c6-7.3,10.7-15.3,14.6-23.8c2.2-4.7,3.7-9.7,5-14.7c2.2-8.6,3.5-17.3,3.4-26.1c0-5.7-0.6-11.3-1.4-16.9c-0.8-5.2-2-10.4-3.6-15.4
		c-1.4-4.5-3.5-8.8-5.4-13c-3.8-8.3-8.9-15.7-15-22.4c-5.1-5.7-10.7-10.7-17-15c-6.8-4.6-13.9-8.5-21.6-11.2c-12-4.1-24.3-6-37-5.1
		c-10.6,0.8-20.6,3.5-30.3,7.6c-7,2.9-13.4,7-19.5,11.7c-7.5,5.8-14,12.4-19.4,20.1c-3.3,4.8-6.7,9.5-8.9,15
		c-0.6,1.5-1.4,2.8-2.1,4.2c-7.6,0.5-65.8,0.3-67.8-0.3C200.1,162.2,217.3,135.5,242.6,113.8z"/>
	<path class="st1" d="M241.7,469.5c-11.7,0-23,0-34.5,0c0,1.5-0.1,2.9-0.1,4.3c0,1.4,0,2.7,0,4.1c-0.1,1.5-0.6,1.9-2.1,2.1
		c-0.3,0-0.6,0-1,0c-0.6,0-1.3,0-1.9,0c-0.5-1.8-0.7-10.6-0.3-14.8c0.6-0.1,1.3-0.2,2-0.1c2.4,0.3,3.9-0.9,4.8-2.8
		c1.1-2.3,2.1-4.7,2.7-7.1c1.5-5.8,2-11.8,2.4-17.8c0.2-3.2,0.3-6.4,0.5-9.6c0-0.3,0.1-0.6,0.2-1c8.4,0,16.6,0,25.3,0
		c0,3.2,0,6.3,0.1,9.5c0,3.2,0,6.4,0,9.6c0,3.1,0,6.2,0,9.4c0,3.2,0,6.4,0,9.8c2.4,0,4.6,0,7.1,0c0,1.7,0,3.1,0,4.5
		c0,2.8,0,5.6,0,8.4c0,1.6-0.5,2-2,2.1c-1,0.1-2,0-3.3,0C241.7,476.4,241.7,473.1,241.7,469.5z M213.2,464.8c7.2,0,14,0,20.7,0
		c0-11.3,0-22.4,0-33.6c-4.7,0-9.2,0-13.9,0c-0.1,1.4-0.2,2.7-0.3,3.9c-0.7,5.8-1.2,11.6-2.1,17.3
		C216.9,456.7,215.6,460.8,213.2,464.8z"/>
	<path class="st2" d="M314.5,447.9c0.1-6.9,2.2-12.9,7.6-17.4c3.6-3,7.9-4.4,12.6-4.5c8.2-0.2,15,2.5,19.1,9.9
		c4.4,8,4.4,16.3,0,24.2c-3.4,6.2-9.1,9.2-16.1,9.7c-5.7,0.4-11-0.7-15.5-4.4C316.6,461,314.5,454.9,314.5,447.9z M350.7,448.1
		c0-0.8,0-1.6,0-2.4c-0.5-8.2-5.4-13.6-13.5-14.5c-6.7-0.7-13.3,2.4-15.7,10.1c-0.9,2.8-1.2,5.6-0.9,8.5c0.7,8.3,5.1,14.4,14.1,15
		c6.5,0.4,12.1-2.5,14.7-8.6C350.4,453.6,350.9,450.9,350.7,448.1z"/>
	<path class="st3" d="M526,450.7c4.6,6.2,9,12.2,13.6,18.5c-2.2,0.4-4.1,0.4-6,0c-0.8-0.2-1.5-1.1-2-1.9c-3.3-4.4-6.6-8.9-9.7-13.4
		c-1.2-1.8-2.7-2.6-4.8-2.4c-0.9,0.1-1.9,0-3.1,0c0,5.9,0,11.7,0,17.6c-2,0.5-3.8,0.2-5.6,0.2c-0.5-1.8-0.6-39.4-0.2-42.6
		c0.1-0.1,0.3-0.2,0.4-0.2c5.2,0,10.4,0.1,15.6,0.2c1.2,0,2.4,0.4,3.5,0.7c4.8,1.4,7.7,4.4,8.3,9.5c0.5,5-1.3,9.1-5.7,11.8
		C528.9,449.5,527.5,450,526,450.7z M514,447.1c3,0,5.8,0.1,8.7-0.1c1.2-0.1,2.5-0.6,3.6-1.2c2.9-1.5,4.3-4.7,3.9-8.1
		c-0.4-3.2-2.4-5.2-5.4-6c-3.5-0.9-7.1-0.7-10.8-0.6C514,436.6,514,441.8,514,447.1z"/>
	<path class="st4" d="M581.2,426.5c2,0,3.9,0,6,0c5.7,14.2,11.3,28.3,17.2,42.9c-1.9,0-3.4,0.1-5,0c-1.2-0.1-1.5-1-1.9-1.9
		c-1.2-3.1-2.4-6.3-3.7-9.5c-6.4,0-12.7,0-19.3,0c-1.1,2.9-2.3,5.8-3.5,8.8c-1.1,2.7-1.1,2.7-4,2.7c-0.9,0-1.7,0-3,0
		C569.8,454.9,575.5,440.8,581.2,426.5z M584.2,432.8c-2.7,7-5.3,13.8-7.9,20.6c5.4,0,10.5,0,15.8,0
		C589.5,446.5,586.9,439.8,584.2,432.8z"/>
	<path class="st2" d="M134.9,427c-4.6,6.7-9.2,13.4-13.9,20.2c4.8,7.3,9.6,14.6,14.7,22.3c-2.3,0-4.1,0.1-6-0.1
		c-0.7-0.1-1.4-0.9-1.9-1.6c-2-3.1-4-6.2-6-9.3c-1.6-2.5-3.3-5.1-5-7.8c-3.6,5.4-7.1,10.7-10.6,15.9c-2.3,3.5-1.6,2.8-5.3,2.9
		c-0.8,0-1.6,0-2.8,0c1.6-2.7,3.2-5,4.8-7.4c1.6-2.5,3.3-4.9,4.9-7.4c1.6-2.4,3.2-4.8,4.9-7.3c-4.6-6.8-9.2-13.6-13.9-20.5
		c1.2-0.5,5.3-0.8,6.1-0.3c0.6,0.4,1.2,1,1.6,1.7c3,4.5,5.9,9,8.8,13.5c0.5,0.7,1,1.4,1.6,2.4c0.9-1.2,1.6-2.3,2.4-3.4
		c2.7-4,5.5-8,8.1-12.2c1-1.7,2.3-2.3,4.1-2.1c1,0.1,2,0,3.1,0C134.7,426.6,134.8,426.8,134.9,427z"/>
	<path class="st4" d="M449.3,426.6c8.8,0,17.4,0,26.3,0c0,1.5,0,3,0,4.7c-6.8,0-13.4,0-20.4,0c-0.1,4.8,0,9.3,0,14.1
		c5.5,0,10.9,0,16.5,0c0,1.7,0,3.1,0,4.7c-5.4,0-10.8,0-16.4,0c0,4.9,0,9.6,0,14.5c6.8,0,13.5,0,20.4,0c0,1.6,0,3,0,4.4
		c-1.6,0.5-23,0.6-26.3,0.2C449.3,455.1,449.3,440.9,449.3,426.6z"/>
	<path class="st3" d="M389.3,426.6c0.5-0.1,0.8-0.2,1.2-0.2c4.8,0,9.6,0.1,14.4,0.2c0.7,0,1.4,0.1,2.1,0.3c7.4,1.6,11,6,10.8,13.5
		c-0.1,6.5-4.5,11.4-11.4,12.6c-1.6,0.3-3.3,0.4-5,0.4c-2.1,0.1-4.1,0-6.5,0c0,5.3,0,10.4,0,15.8c-2,0-3.8,0-5.8,0
		C389.3,455.2,389.3,441,389.3,426.6z M395.1,431.1c0,6,0,11.7,0,17.5c3.2,0,6.3,0.1,9.4-0.1c1.1-0.1,2.3-0.6,3.4-1.2
		c3.1-1.6,4.7-5.2,4.2-8.9c-0.5-3.7-2.9-6.2-6.6-7C402.1,430.8,398.7,431.1,395.1,431.1z"/>
	<path class="st2" d="M71.2,431.3c0,0.3,0,0.4,0,0.5c-2.5,3.9-2.5,3.7-6,1.5c-7.4-4.6-20.4-2.7-22.7,10.5c-0.8,4.4-0.5,8.8,1.4,12.9
		c2.7,5.8,7.5,8.3,13.7,8.3c3.6,0,6.9-1,9.7-3.4c1.5-1.3,1.8-1.2,3.2,0.2c0.5,0.5,0.9,1.1,1.5,1.7c-1.9,2.7-4.6,4.4-7.5,5.3
		c-5.6,1.8-11.2,1.8-16.6-0.5c-4.1-1.7-7.2-4.6-9.1-8.5c-3.7-7.8-3.9-15.8,0.2-23.5c3.2-6.1,8.6-9.3,15.4-10.1
		c5.5-0.6,10.7,0.3,15.2,3.7C70.2,430.3,70.8,430.9,71.2,431.3z"/>
	<path class="st5" d="M171.6,469.3c-1.9,0-3.6,0-5.3,0c-0.5-1.7-0.6-39.4-0.1-42.6c1.8,0,3.5,0,5.5,0
		C171.6,440.9,171.6,455,171.6,469.3z"/>
</g>
</svg>
