<svg xmlns="http://www.w3.org/2000/svg" viewBox="0 0 745.1 367">
<style type="text/css">
	.st0{fill:#CCA16A;}
</style>
	<path class="st0" d="M631.2,237.3h-12.1v-89.6h12.1V237.3z"/>
	<path class="st0" d="M731.7,192.5c0,6.7-1.1,12.8-3.2,18.3s-5.1,10.2-9,14.1c-3.9,3.9-8.5,6.9-14,9.1c-5.4,2.1-11.4,3.2-18,3.2
		h-33.4v-89.6h33.4c6.6,0,12.6,1.1,18,3.2c5.4,2.1,10.1,5.2,14,9.1s6.9,8.7,9,14.2S731.7,185.8,731.7,192.5z M719.2,192.5
		c0-5.5-0.8-10.4-2.3-14.8c-1.5-4.3-3.6-8-6.4-11s-6.1-5.3-10-6.9c-3.9-1.6-8.3-2.4-13.1-2.4h-21.3v69.9h21.3
		c4.8,0,9.2-0.8,13.1-2.4c3.9-1.6,7.3-3.9,10-6.8c2.8-3,4.9-6.6,6.4-11C718.5,203,719.2,198,719.2,192.5z"/>
	<path class="st0" d="M484.5,275.5c5.2,0,9.7,0.6,13.6,1.8c3.9,1.2,7,2.9,9.6,5.1c2.5,2.2,4.4,4.9,5.7,8.1c1.2,3.1,1.9,6.7,1.9,10.5
		c0,3.8-0.7,7.3-2,10.5c-1.3,3.2-3.3,5.9-5.9,8.2c-2.6,2.3-5.8,4.1-9.6,5.4s-8.2,1.9-13.2,1.9h-13.2v30.8h-11.1v-82.4H484.5z
		 M484.5,318.2c3.2,0,6-0.4,8.4-1.3c2.4-0.8,4.5-2,6.2-3.5c1.7-1.5,2.9-3.3,3.8-5.4c0.8-2.1,1.3-4.4,1.3-7c0-5.3-1.6-9.4-4.9-12.3
		c-3.2-3-8.2-4.4-14.7-4.4h-13.2v33.9H484.5z"/>
	<path class="st0" d="M580,348.8l-0.1,9.1h-50.8v-82.4H580v9.1h-39.6V312h32.1v8.7h-32.1v28.1H580z"/>
	<path class="st0" d="M656.5,357.9h-9.9c-2,0-3.5-0.8-4.5-2.4l-21.4-29.4c-0.7-0.9-1.4-1.6-2.1-2c-0.7-0.4-1.9-0.6-3.5-0.6h-8.5
		v34.4h-11.1v-82.4h23.3c5.2,0,9.7,0.5,13.5,1.6c3.8,1.1,6.9,2.6,9.4,4.6c2.5,2,4.3,4.4,5.5,7.2c1.2,2.8,1.8,6,1.8,9.5
		c0,2.9-0.5,5.6-1.4,8.2c-0.9,2.5-2.3,4.8-4,6.8c-1.7,2-3.9,3.7-6.4,5.1c-2.5,1.4-5.4,2.5-8.5,3.2c1.4,0.8,2.6,2,3.7,3.5
		L656.5,357.9z M618.4,315.4c3.2,0,6.1-0.4,8.5-1.2c2.5-0.8,4.5-1.9,6.2-3.3c1.7-1.4,2.9-3.2,3.8-5.1c0.8-2,1.3-4.2,1.3-6.6
		c0-4.9-1.6-8.6-4.8-11.1c-3.2-2.5-8-3.7-14.5-3.7h-12.2v31.1H618.4z"/>
	<path class="st0" d="M734.6,357.9H726c-1,0-1.8-0.2-2.4-0.7s-1.1-1.1-1.4-1.9l-7.7-19.9h-37l-7.7,19.9c-0.2,0.7-0.7,1.3-1.3,1.8
		c-0.7,0.5-1.5,0.8-2.4,0.8h-8.6l32.9-82.4h11.3L734.6,357.9z M711.4,327.3l-12.9-33.5c-0.4-1-0.8-2.2-1.2-3.5
		c-0.4-1.3-0.8-2.7-1.2-4.2c-0.8,3.1-1.6,5.7-2.5,7.8l-12.9,33.5H711.4z"/>
	<path class="st0" d="M569.8,99.7l-31,35.6l0,0c6.4,12.7,6.7,27.5-0.4,39.9c-11.9,20.6-39.9,26.6-62.6,13.5
		c-22.7-13.1-31.5-40.4-19.6-61c10-17.4,31.6-24.4,51.7-18.2l0,0L539,72.4c-12-6.4-25.7-9.9-40.2-9.9c-48,0-87,39.4-87,88
		s39,88,87,88s87-39.4,87-88C585.7,131.6,579.8,114.1,569.8,99.7z"/>
	<path class="st0" d="M320.2,76.1c-67.6,0-124.4,45.9-140.1,108h61.6l0.3,0.2c13.4-31.9,43.9-54.2,79.4-54.2
		c47.9,0,86.8,40.6,86.8,90.8c0,50.1-38.8,90.8-86.8,90.8c-34.1,0-65.1-22.1-79.3-52c-12,9.9-27,21-48,28
		c24.1,45.8,70.2,74.5,126,74.5c79.8,0,144.5-64,144.5-143S400,76.1,320.2,76.1z"/>
	<path class="st0" d="M228,188.1c0,0.1-0.1,0.2-0.1,0.3c-13.7,31.7-44,53.7-79.2,53.7c-48,0-87-41.1-87-91.8s39-91.7,87-91.7
		c34.4,0,64.2,21.1,78.3,51.7c7.6-6.1,16.7-11.9,26.7-17.1c7.9-4.1,15.8-7.4,23.3-10C252.7,37.1,204.1,5.8,148.3,6.1
		C67.3,6.6,2.2,74.2,4.7,155.1c2.4,77.7,66.1,140,144.4,140c66.8,0,123.1-45.4,139.6-107H228z"/>
</svg>
