<svg xmlns="http://www.w3.org/2000/svg" viewBox="0 0 148.9 166.6">
<style type="text/css">
  circle{fill:#fff;stroke:#666;stroke-width:0.5;cursor:pointer;transition:0.3s;}
  text{font-family:'Arial',sans-serif;font-size:7px;fill:#333;pointer-events:none;}
  .st1{fill:none;stroke:#666;stroke-width:0.5;}
  .row{fill:#666;}
  .scene{fill:#E2E2E2;}
  .scene-text{font-size:9px;}
  .available circle{fill:#009238;stroke-width:0;}
  .not-available circle{fill:#e7e7e7;stroke:#888888;}
  .not-markable{display:none;}
  .selected circle{fill:#f490a5;stroke-width:0;}
  .best circle{fill:#cc9933;stroke-width:0;}
  [data-seat] {transition:0.3s;}
  [data-partial-visible] {opacity:0.2;}
</style>
<g id="scene">
  <path class="scene" d="M147.7,14.4h-0.4H147.7c-0.2-0.5-0.6-0.8-1-1.4L133.5,2.7c-1.7-1.4-3.1-2.7-5.8-2.7H74.3H20.9   c-2.7,0-4.1,1.3-5.8,2.7L2.6,11.9C2.1,12.4,1,13.5,0.8,14c0,0-0.4,1.7-0.3,2.2c0.3,2,2.7,3.2,5.9,3.2h67.6h0.4h67.6   c3.2,0,5.6-1.5,5.9-3.5C148.1,15.3,148,14.9,147.7,14.4z"/>
  <text transform="matrix(1 0 0 1 62.9217 11.6686)" class="scene-text">СЦЕНА</text>
</g>
<g data-section="1" data-name-ru="Партер" data-name-en="Parquet" data-name-ua="Партер">
  <path class="st1" d="M0.5,157c0,5,4,9,9,9h130c5,0,9-4,9-9V33c0-5-4-9-9-9H9.5c-5,0-9,4-9,9V157z"/>
  <g data-row="1">
    <g data-seat="1">
      <circle cx="20.9" cy="31.9" r="5.5"/>
      <text transform="matrix(1 0 0 1 18.8201 34.468)">1</text>
    </g>
    <g data-seat="2">
      <circle cx="32.8" cy="31.9" r="5.5"/>
      <text transform="matrix(1 0 0 1 30.7449 34.468)">2</text>
    </g>
    <g data-seat="3">
      <circle cx="44.7" cy="31.9" r="5.5"/>
      <text transform="matrix(1 0 0 1 42.6377 34.468)">3</text>
    </g>
    <g data-seat="4">
      <circle cx="56.6" cy="31.9" r="5.5"/>
      <text transform="matrix(1 0 0 1 54.4289 34.468)">4</text>
    </g>
    <g data-seat="5">
      <circle cx="68.5" cy="31.9" r="5.5"/>
      <text transform="matrix(1 0 0 1 66.4358 34.468)">5</text>
    </g>
    <g data-seat="6">
      <circle cx="80.3" cy="31.9" r="5.5"/>
      <text transform="matrix(1 0 0 1 78.2431 34.468)">6</text>
    </g>
    <g data-seat="7">
      <circle cx="92.3" cy="31.9" r="5.5"/>
      <text transform="matrix(1 0 0 1 90.2179 34.468)">7</text>
    </g>
    <g data-seat="8">
      <circle cx="104.2" cy="31.9" r="5.5"/>
      <text transform="matrix(1 0 0 1 102.1252 34.468)">8</text>
    </g>
    <g data-seat="9">
      <circle cx="116.1" cy="31.9" r="5.5"/>
      <text transform="matrix(1 0 0 1 114.0027 34.468)">9</text>
    </g>
    <g data-seat="10">
      <circle cx="128" cy="31.9" r="5.5"/>
      <text transform="matrix(1 0 0 1 123.9196 34.468)">10</text>
    </g>
    <text transform="matrix(1 0 0 1 4.701 34.468)" class="row">1</text>
    <text transform="matrix(1 0 0 1 140.701 34.468)" class="row">1</text>
  </g>
  <g data-row="2">
    <g data-seat="1">
      <circle cx="20.9" cy="45.9" r="5.5"/>
      <text transform="matrix(1 0 0 1 18.8201 48.468)">1</text>
    </g>
    <g data-seat="2">
      <circle cx="32.8" cy="45.9" r="5.5"/>
      <text transform="matrix(1 0 0 1 30.7449 48.468)">2</text>
    </g>
    <g data-seat="3">
      <circle cx="44.7" cy="45.9" r="5.5"/>
      <text transform="matrix(1 0 0 1 42.6377 48.468)">3</text>
    </g>
    <g data-seat="4">
      <circle cx="56.6" cy="45.9" r="5.5"/>
      <text transform="matrix(1 0 0 1 54.4289 48.468)">4</text>
    </g>
    <g data-seat="5">
      <circle cx="68.5" cy="45.9" r="5.5"/>
      <text transform="matrix(1 0 0 1 66.4358 48.468)">5</text>
    </g>
    <g data-seat="6">
      <circle cx="80.3" cy="45.9" r="5.5"/>
      <text transform="matrix(1 0 0 1 78.2431 48.468)">6</text>
    </g>
    <g data-seat="7">
      <circle cx="92.3" cy="45.9" r="5.5"/>
      <text transform="matrix(1 0 0 1 90.2179 48.468)">7</text>
    </g>
    <g data-seat="8">
      <circle cx="104.2" cy="45.9" r="5.5"/>
      <text transform="matrix(1 0 0 1 102.1252 48.468)">8</text>
    </g>
    <g data-seat="9">
      <circle cx="116.1" cy="45.9" r="5.5"/>
      <text transform="matrix(1 0 0 1 114.0027 48.468)">9</text>
    </g>
    <g data-seat="10">
      <circle cx="128" cy="45.9" r="5.5"/>
      <text transform="matrix(1 0 0 1 123.9196 48.468)">10</text>
    </g>
    <text transform="matrix(1 0 0 1 4.7006 48.468)" class="row">2</text>
    <text transform="matrix(1 0 0 1 140.7006 48.468)" class="row">2</text>
  </g>
  <g data-row="3">
    <g data-seat="1">
      <circle cx="20.9" cy="59.9" r="5.5"/>
      <text transform="matrix(1 0 0 1 18.8201 62.468)">1</text>
    </g>
    <g data-seat="2">
      <circle cx="32.8" cy="59.9" r="5.5"/>
      <text transform="matrix(1 0 0 1 30.7449 62.468)">2</text>
    </g>
    <g data-seat="3">
      <circle cx="44.7" cy="59.9" r="5.5"/>
      <text transform="matrix(1 0 0 1 42.6377 62.468)">3</text>
    </g>
    <g data-seat="4">
      <circle cx="56.6" cy="59.9" r="5.5"/>
      <text transform="matrix(1 0 0 1 54.4289 62.468)">4</text>
    </g>
    <g data-seat="5">
      <circle cx="68.5" cy="59.9" r="5.5"/>
      <text transform="matrix(1 0 0 1 66.4358 62.468)">5</text>
    </g>
    <g data-seat="6">
      <circle cx="80.3" cy="59.9" r="5.5"/>
      <text transform="matrix(1 0 0 1 78.2431 62.468)">6</text>
    </g>
    <g data-seat="7">
      <circle cx="92.3" cy="59.9" r="5.5"/>
      <text transform="matrix(1 0 0 1 90.2179 62.468)">7</text>
    </g>
    <g data-seat="8">
      <circle cx="104.2" cy="59.9" r="5.5"/>
      <text transform="matrix(1 0 0 1 102.1252 62.468)">8</text>
    </g>
    <g data-seat="9">
      <circle cx="116.1" cy="59.9" r="5.5"/>
      <text transform="matrix(1 0 0 1 114.0027 62.468)">9</text>
    </g>
    <g data-seat="10">
      <circle cx="128" cy="59.9" r="5.5"/>
      <text transform="matrix(1 0 0 1 123.9196 62.468)">10</text>
    </g>
    <text transform="matrix(1 0 0 1 4.701 62.468)" class="row">3</text>
    <text transform="matrix(1 0 0 1 140.7009 62.468)" class="row">3</text>
  </g>
  <g data-row="4">
    <g data-seat="1">
      <circle cx="20.9" cy="73.9" r="5.5"/>
      <text transform="matrix(1 0 0 1 18.8201 76.468)">1</text>
    </g>
    <g data-seat="2">
      <circle cx="32.8" cy="73.9" r="5.5"/>
      <text transform="matrix(1 0 0 1 30.7449 76.468)">2</text>
    </g>
    <g data-seat="3">
      <circle cx="44.7" cy="73.9" r="5.5"/>
      <text transform="matrix(1 0 0 1 42.6377 76.468)">3</text>
    </g>
    <g data-seat="4">
      <circle cx="56.6" cy="73.9" r="5.5"/>
      <text transform="matrix(1 0 0 1 54.4289 76.468)">4</text>
    </g>
    <g data-seat="5">
      <circle cx="68.5" cy="73.9" r="5.5"/>
      <text transform="matrix(1 0 0 1 66.4358 76.468)">5</text>
    </g>
    <g data-seat="6">
      <circle cx="80.3" cy="73.9" r="5.5"/>
      <text transform="matrix(1 0 0 1 78.2431 76.468)">6</text>
    </g>
    <g data-seat="7">
      <circle cx="92.3" cy="73.9" r="5.5"/>
      <text transform="matrix(1 0 0 1 90.2179 76.468)">7</text>
    </g>
    <g data-seat="8">
      <circle cx="104.2" cy="73.9" r="5.5"/>
      <text transform="matrix(1 0 0 1 102.1252 76.468)">8</text>
    </g>
    <g data-seat="9">
      <circle cx="116.1" cy="73.9" r="5.5"/>
      <text transform="matrix(1 0 0 1 114.0027 76.468)">9</text>
    </g>
    <g data-seat="10">
      <circle cx="128" cy="73.9" r="5.5"/>
      <text transform="matrix(1 0 0 1 123.9196 76.468)">10</text>
    </g>
    <text transform="matrix(1 0 0 1 4.5779 76.468)" class="row">4</text>
    <text transform="matrix(1 0 0 1 140.5779 76.468)" class="row">4</text>
  </g>
  <g data-row="5">
    <g data-seat="1">
      <circle cx="20.9" cy="87.9" r="5.5"/>
      <text transform="matrix(1 0 0 1 18.8201 90.468)">1</text>
    </g>
    <g data-seat="2">
      <circle cx="32.8" cy="87.9" r="5.5"/>
      <text transform="matrix(1 0 0 1 30.7449 90.468)">2</text>
    </g>
    <g data-seat="3">
      <circle cx="44.7" cy="87.9" r="5.5"/>
      <text transform="matrix(1 0 0 1 42.6377 90.468)">3</text>
    </g>
    <g data-seat="4">
      <circle cx="56.6" cy="87.9" r="5.5"/>
      <text transform="matrix(1 0 0 1 54.4289 90.468)">4</text>
    </g>
    <g data-seat="5">
      <circle cx="68.5" cy="87.9" r="5.5"/>
      <text transform="matrix(1 0 0 1 66.4358 90.468)">5</text>
    </g>
    <g data-seat="6">
      <circle cx="80.3" cy="87.9" r="5.5"/>
      <text transform="matrix(1 0 0 1 78.2431 90.468)">6</text>
    </g>
    <g data-seat="7">
      <circle cx="92.3" cy="87.9" r="5.5"/>
      <text transform="matrix(1 0 0 1 90.2179 90.468)">7</text>
    </g>
    <g data-seat="8">
      <circle cx="104.2" cy="87.9" r="5.5"/>
      <text transform="matrix(1 0 0 1 102.1252 90.468)">8</text>
    </g>
    <g data-seat="9">
      <circle cx="116.1" cy="87.9" r="5.5"/>
      <text transform="matrix(1 0 0 1 114.0027 90.468)">9</text>
    </g>
    <g data-seat="10">
      <circle cx="128" cy="87.9" r="5.5"/>
      <text transform="matrix(1 0 0 1 123.9196 90.468)">10</text>
    </g>
    <text transform="matrix(1 0 0 1 4.7007 90.468)" class="row">5</text>
    <text transform="matrix(1 0 0 1 140.7007 90.468)" class="row">5</text>
  </g>
  <g data-row="6">
    <g data-seat="1">
      <circle cx="20.9" cy="101.9" r="5.5"/>
      <text transform="matrix(1 0 0 1 18.8201 104.468)">1</text>
    </g>
    <g data-seat="2">
      <circle cx="32.8" cy="101.9" r="5.5"/>
      <text transform="matrix(1 0 0 1 30.7449 104.468)">2</text>
    </g>
    <g data-seat="3">
      <circle cx="44.7" cy="101.9" r="5.5"/>
      <text transform="matrix(1 0 0 1 42.6377 104.468)">3</text>
    </g>
    <g data-seat="4">
      <circle cx="56.6" cy="101.9" r="5.5"/>
      <text transform="matrix(1 0 0 1 54.4289 104.468)">4</text>
    </g>
    <g data-seat="5">
      <circle cx="68.5" cy="101.9" r="5.5"/>
      <text transform="matrix(1 0 0 1 66.4358 104.468)">5</text>
    </g>
    <g data-seat="6">
      <circle cx="80.3" cy="101.9" r="5.5"/>
      <text transform="matrix(1 0 0 1 78.2431 104.468)">6</text>
    </g>
    <g data-seat="7">
      <circle cx="92.3" cy="101.9" r="5.5"/>
      <text transform="matrix(1 0 0 1 90.2179 104.468)">7</text>
    </g>
    <g data-seat="8">
      <circle cx="104.2" cy="101.9" r="5.5"/>
      <text transform="matrix(1 0 0 1 102.1252 104.468)">8</text>
    </g>
    <g data-seat="9">
      <circle cx="116.1" cy="101.9" r="5.5"/>
      <text transform="matrix(1 0 0 1 114.0027 104.468)">9</text>
    </g>
    <g data-seat="10">
      <circle cx="128" cy="101.9" r="5.5"/>
      <text transform="matrix(1 0 0 1 123.9196 104.468)">10</text>
    </g>
    <text transform="matrix(1 0 0 1 4.6259 104.468)" class="row">6</text>
    <text transform="matrix(1 0 0 1 140.6259 104.468)" class="row">6</text>
  </g>
  <g data-row="7">
    <g data-seat="1">
      <circle cx="20.9" cy="115.9" r="5.5"/>
      <text transform="matrix(1 0 0 1 18.8201 118.468)">1</text>
    </g>
    <g data-seat="2">
      <circle cx="32.8" cy="115.9" r="5.5"/>
      <text transform="matrix(1 0 0 1 30.7449 118.468)">2</text>
    </g>
    <g data-seat="3">
      <circle cx="44.7" cy="115.9" r="5.5"/>
      <text transform="matrix(1 0 0 1 42.6377 118.468)">3</text>
    </g>
    <g data-seat="4">
      <circle cx="56.6" cy="115.9" r="5.5"/>
      <text transform="matrix(1 0 0 1 54.4289 118.468)">4</text>
    </g>
    <g data-seat="5">
      <circle cx="68.5" cy="115.9" r="5.5"/>
      <text transform="matrix(1 0 0 1 66.4358 118.468)">5</text>
    </g>
    <g data-seat="6">
      <circle cx="80.3" cy="115.9" r="5.5"/>
      <text transform="matrix(1 0 0 1 78.2431 118.468)">6</text>
    </g>
    <g data-seat="7">
      <circle cx="92.3" cy="115.9" r="5.5"/>
      <text transform="matrix(1 0 0 1 90.2179 118.468)">7</text>
    </g>
    <g data-seat="8">
      <circle cx="104.2" cy="115.9" r="5.5"/>
      <text transform="matrix(1 0 0 1 102.1252 118.468)">8</text>
    </g>
    <g data-seat="9">
      <circle cx="116.1" cy="115.9" r="5.5"/>
      <text transform="matrix(1 0 0 1 114.0027 118.468)">9</text>
    </g>
    <g data-seat="10">
      <circle cx="128" cy="115.9" r="5.5"/>
      <text transform="matrix(1 0 0 1 123.9196 118.468)">10</text>
    </g>
    <text transform="matrix(1 0 0 1 4.6834 118.468)" class="row">7</text>
    <text transform="matrix(1 0 0 1 140.6834 118.468)" class="row">7</text>
  </g>
  <g data-row="8">
    <g data-seat="1">
      <circle cx="20.9" cy="129.9" r="5.5"/>
      <text transform="matrix(1 0 0 1 18.8201 132.468)">1</text>
    </g>
    <g data-seat="2">
      <circle cx="32.8" cy="129.9" r="5.5"/>
      <text transform="matrix(1 0 0 1 30.7449 132.468)">2</text>
    </g>
    <g data-seat="3">
      <circle cx="44.7" cy="129.9" r="5.5"/>
      <text transform="matrix(1 0 0 1 42.6377 132.468)">3</text>
    </g>
    <g data-seat="4">
      <circle cx="56.6" cy="129.9" r="5.5"/>
      <text transform="matrix(1 0 0 1 54.4289 132.468)">4</text>
    </g>
    <g data-seat="5">
      <circle cx="68.5" cy="129.9" r="5.5"/>
      <text transform="matrix(1 0 0 1 66.4358 132.468)">5</text>
    </g>
    <g data-seat="6">
      <circle cx="80.3" cy="129.9" r="5.5"/>
      <text transform="matrix(1 0 0 1 78.2431 132.468)">6</text>
    </g>
    <g data-seat="7">
      <circle cx="92.3" cy="129.9" r="5.5"/>
      <text transform="matrix(1 0 0 1 90.2179 132.468)">7</text>
    </g>
    <g data-seat="8">
      <circle cx="104.2" cy="129.9" r="5.5"/>
      <text transform="matrix(1 0 0 1 102.1252 132.468)">8</text>
    </g>
    <g data-seat="9">
      <circle cx="116.1" cy="129.9" r="5.5"/>
      <text transform="matrix(1 0 0 1 114.0027 132.468)">9</text>
    </g>
    <g data-seat="10">
      <circle cx="128" cy="129.9" r="5.5"/>
      <text transform="matrix(1 0 0 1 123.9196 132.468)">10</text>
    </g>
    <text transform="matrix(1 0 0 1 4.6437 132.468)" class="row">8</text>
    <text transform="matrix(1 0 0 1 140.6437 132.468)" class="row">8</text>
  </g>
  <g data-row="9">
    <g data-seat="1">
      <circle cx="20.9" cy="143.9" r="5.5"/>
      <text transform="matrix(1 0 0 1 18.8201 146.468)">1</text>
    </g>
    <g data-seat="2">
      <circle cx="32.8" cy="143.9" r="5.5"/>
      <text transform="matrix(1 0 0 1 30.7449 146.468)">2</text>
    </g>
    <g data-seat="3">
      <circle cx="44.7" cy="143.9" r="5.5"/>
      <text transform="matrix(1 0 0 1 42.6377 146.468)">3</text>
    </g>
    <g data-seat="4">
      <circle cx="56.6" cy="143.9" r="5.5"/>
      <text transform="matrix(1 0 0 1 54.4289 146.468)">4</text>
    </g>
    <g data-seat="5">
      <circle cx="68.5" cy="143.9" r="5.5"/>
      <text transform="matrix(1 0 0 1 66.4358 146.468)">5</text>
    </g>
    <g data-seat="6">
      <circle cx="80.3" cy="143.9" r="5.5"/>
      <text transform="matrix(1 0 0 1 78.2431 146.468)">6</text>
    </g>
    <g data-seat="7">
      <circle cx="92.3" cy="143.9" r="5.5"/>
      <text transform="matrix(1 0 0 1 90.2179 146.468)">7</text>
    </g>
    <g data-seat="8">
      <circle cx="104.2" cy="143.9" r="5.5"/>
      <text transform="matrix(1 0 0 1 102.1252 146.468)">8</text>
    </g>
    <g data-seat="9">
      <circle cx="116.1" cy="143.9" r="5.5"/>
      <text transform="matrix(1 0 0 1 114.0027 146.468)">9</text>
    </g>
    <g data-seat="10">
      <circle cx="128" cy="143.9" r="5.5"/>
      <text transform="matrix(1 0 0 1 123.9196 146.468)">10</text>
    </g>
    <text transform="matrix(1 0 0 1 4.6347 146.468)" class="row">9</text>
    <text transform="matrix(1 0 0 1 140.6347 146.468)" class="row">9</text>
  </g>
  <g data-row="10">
    <g data-seat="1">
      <circle cx="20.9" cy="157.9" r="5.5"/>
      <text transform="matrix(1 0 0 1 18.8201 160.468)">1</text>
    </g>
    <g data-seat="2">
      <circle cx="32.8" cy="157.9" r="5.5"/>
      <text transform="matrix(1 0 0 1 30.7449 160.468)">2</text>
    </g>
    <g data-seat="3">
      <circle cx="44.7" cy="157.9" r="5.5"/>
      <text transform="matrix(1 0 0 1 42.6377 160.468)">3</text>
    </g>
    <g data-seat="4">
      <circle cx="56.6" cy="157.9" r="5.5"/>
      <text transform="matrix(1 0 0 1 54.4289 160.468)">4</text>
    </g>
    <g data-seat="5">
      <circle cx="68.5" cy="157.9" r="5.5"/>
      <text transform="matrix(1 0 0 1 66.4358 160.468)">5</text>
    </g>
    <g data-seat="6">
      <circle cx="80.3" cy="157.9" r="5.5"/>
      <text transform="matrix(1 0 0 1 78.2431 160.468)">6</text>
    </g>
    <g data-seat="7">
      <circle cx="92.3" cy="157.9" r="5.5"/>
      <text transform="matrix(1 0 0 1 90.2179 160.468)">7</text>
    </g>
    <g data-seat="8">
      <circle cx="104.2" cy="157.9" r="5.5"/>
      <text transform="matrix(1 0 0 1 102.1252 160.468)">8</text>
    </g>
    <g data-seat="9">
      <circle cx="116.1" cy="157.9" r="5.5"/>
      <text transform="matrix(1 0 0 1 114.0027 160.468)">9</text>
    </g>
    <g data-seat="10">
      <circle cx="128" cy="157.9" r="5.5"/>
      <text transform="matrix(1 0 0 1 123.9196 160.468)">10</text>
    </g>
    <text transform="matrix(1 0 0 1 2.6073 160.468)" class="row">10</text>
    <text transform="matrix(1 0 0 1 139.6073 160.468)" class="row">10</text>
  </g>
</g>
</svg>
